<svg xmlns="http://www.w3.org/2000/svg" width="207.3799285888672" height="235.6973876953125" viewBox="-107.31527709960938 -128.50634765625 207.3799285888672 235.6973876953125"><title>Neo4j Graph Visualization</title><desc>Created using Neo4j (http://www.neo4j.com/)</desc><g class="layer relationships"><g class="relationship" transform="translate(-63.1040995671062 -99.50635117383467) rotate(454.42531659911265)"><path class="outline" fill="#A5ABB6" stroke="none" d="M 21.40063509461097,12.933012701892217 L 21.90063509461097,12.06698729810778 A 102.24742556985147 102.24742556985147 0 0 0 40.57096186702162,20.47849145635864 L 40.25356134733475,21.426783030771546 A 103.24742556985147 103.24742556985147 0 0 1 21.40063509461097,12.933012701892217 Z M 101.33632757739255,22.807910764308374 L 101.06211270431854,21.846242316565082 A 102.24742556985147 102.24742556985147 0 0 0 120.09354558043003,14.287203576425721 L 118.71250745339951,11.623984905026761 L 126.53789550153269,11.50865105858767 L 121.93492974980406,17.838161804957664 L 120.55389162277353,15.174943133558706 A 103.24742556985147 103.24742556985147 0 0 1 101.33632757739255,22.807910764308374"/><text text-anchor="middle" pointer-events="none" font-size="8px" fill="#000000" x="70.70174419183232" y="29.239290291482504" transform="rotate(180 70.70174419183232 26.239290291482504)" font-family="sans-serif">PublicTransport</text></g><g class="relationship" transform="translate(-74.58015018235739 48.78162870551432) rotate(371.4159787376632)"><path class="outline" fill="#A5ABB6" stroke="none" d="M 25 0.5 L 61.12422853838662 0.5 L 61.12422853838662 -0.5 L 25 -0.5 Z M 80.46016603838662 0.5 L 116.58439457677324 0.5 L 116.58439457677324 3.5 L 123.58439457677324 0 L 116.58439457677324 -3.5 L 116.58439457677324 -0.5 L 80.46016603838662 -0.5 Z"/><text text-anchor="middle" pointer-events="none" font-size="8px" fill="#000000" x="70.79219728838662" y="3" font-family="sans-serif">trek</text></g><g class="relationship" transform="translate(71.06465273952689 78.19104375565996) rotate(253.92407083324008)"><path class="outline" fill="#A5ABB6" stroke="none" d="M 25 0.5 L 59.29927503565713 0.5 L 59.29927503565713 -0.5 L 25 -0.5 Z M 78.63521253565713 0.5 L 112.93448757131426 0.5 L 112.93448757131426 3.5 L 119.93448757131426 0 L 112.93448757131426 -3.5 L 112.93448757131426 -0.5 L 78.63521253565713 -0.5 Z"/><text text-anchor="middle" pointer-events="none" font-size="8px" fill="#000000" x="68.96724378565713" y="3" transform="rotate(180 68.96724378565713 0)" font-family="sans-serif">trek</text></g><g class="relationship" transform="translate(-63.1040995671062 -99.50635117383467) rotate(454.42531659911265)"><path class="outline" fill="#A5ABB6" stroke="none" d="M 25 0.5 L 61.197723464928686 0.5 L 61.197723464928686 -0.5 L 25 -0.5 Z M 80.53366096492869 0.5 L 116.73138442985737 0.5 L 116.73138442985737 3.5 L 123.73138442985737 0 L 116.73138442985737 -3.5 L 116.73138442985737 -0.5 L 80.53366096492869 -0.5 Z"/><text text-anchor="middle" pointer-events="none" font-size="8px" fill="#000000" x="70.86569221492869" y="3" transform="rotate(180 70.86569221492869 0)" font-family="sans-serif">trek</text></g><g class="relationship" transform="translate(-63.1040995671062 -99.50635117383467) rotate(454.42531659911265)"><path class="outline" fill="#A5ABB6" stroke="none" d="M 21.40063509461097,-12.933012701892217 L 21.90063509461097,-12.06698729810778 A 102.24742556985147 102.24742556985147 0 0 1 59.797717389721775,-24.906443470550997 L 59.668358333333806,-25.898041289492937 A 103.24742556985147 103.24742556985147 0 0 0 21.40063509461097,-12.933012701892217 Z M 81.73927816926734,-26.3970815486598 L 81.6548699601364,-25.400650289499737 A 102.24742556985147 102.24742556985147 0 0 1 120.09354558043003,-14.287203576425721 L 118.71250745339951,-11.623984905026761 L 126.53789550153269,-11.50865105858767 L 121.93492974980406,-17.838161804957664 L 120.55389162277353,-15.174943133558706 A 103.24742556985147 103.24742556985147 0 0 0 81.73927816926734,-26.3970815486598"/><text text-anchor="middle" pointer-events="none" font-size="8px" fill="#000000" x="70.70174419183232" y="-23.239290291482504" transform="rotate(180 70.70174419183232 -26.239290291482504)" font-family="sans-serif">road</text></g></g><g class="layer nodes"><g class="node" aria-label="graph-node1" transform="translate(-63.1040995671062,-99.50635117383467)"><circle class="outline" cx="0" cy="0" r="25" fill="#57C7E3" stroke="#23b3d7" stroke-width="2px"/><text class="caption" text-anchor="middle" pointer-events="none" x="0" y="5" font-size="10px" fill="#2A2C34" font-family="sans-serif"> Darjeeling</text></g><g class="node" aria-label="graph-node3" transform="translate(30.930700181425742,-61.07586379822927)"><circle class="outline" cx="0" cy="0" r="25" fill="#F16667" stroke="#eb2728" stroke-width="2px"/><text class="caption" text-anchor="middle" pointer-events="none" x="0" y="5" font-size="10px" fill="#FFFFFF" font-family="sans-serif"> Sandakp…</text></g><g class="node" aria-label="graph-node0" transform="translate(-74.58015018235739,48.78162870551432)"><circle class="outline" cx="0" cy="0" r="25" fill="#57C7E3" stroke="#23b3d7" stroke-width="2px"/><text class="caption" text-anchor="middle" pointer-events="none" x="0" y="5" font-size="10px" fill="#2A2C34" font-family="sans-serif"> Rimbik</text></g><g class="node" aria-label="graph-node2" transform="translate(71.06465273952689,78.19104375565996)"><circle class="outline" cx="0" cy="0" r="25" fill="#D9C8AE" stroke="#c0a378" stroke-width="2px"/><text class="caption" text-anchor="middle" pointer-events="none" x="0" y="5" font-size="10px" fill="#2A2C34" font-family="sans-serif"> BhikeBh…</text></g></g></svg>