<svg xmlns="http://www.w3.org/2000/svg" width="440.8116149902344" height="266.00628662109375" viewBox="-290.1557312011719 -261.6420593261719 440.8116149902344 266.00628662109375"><title>Neo4j Graph Visualization</title><desc>Created using Neo4j (http://www.neo4j.com/)</desc><g class="layer relationships"><g class="relationship" transform="translate(-261.1557298641635 -118.8084259190363) rotate(347.2122461264189)"><path class="outline" fill="#A5ABB6" stroke="none" d="M 5.987513214418485,-24.277555179777966 L 6.953439040707552,-24.018736134675446 A 88.16520518550534 88.16520518550534 0 0 1 65.81981627808256,-85.35270139371217 L 65.52157309500309,-86.30719131180801 A 89.16520518550534 89.16520518550534 0 0 0 5.987513214418485,-24.277555179777966 Z M 112.53079875514132,-87.99626162816863 L 112.30182702784923,-87.02282855491661 A 88.16520518550534 88.16520518550534 0 0 1 175.41825736046198,-30.07178040373457 L 172.58367756872707,-29.089356155108693 L 178.18301057254484,-23.621498264457447 L 179.19769708277516,-31.381679401902407 L 176.36311729104025,-30.399255153276528 A 89.16520518550534 89.16520518550534 0 0 0 112.53079875514132,-87.99626162816863"/><text text-anchor="middle" pointer-events="none" font-size="8px" fill="#000000" x="88.93074695047281" y="-86.8079286720272" font-family="sans-serif">ECONOMY</text></g><g class="relationship" transform="translate(-79.4084414227646 -160.059547826575) rotate(377.7340984668279)"><path class="outline" fill="#A5ABB6" stroke="none" d="M 5.987513214418485,24.277555179777966 L 6.953439040707552,24.018736134675446 A 99.47608974726606 99.47608974726606 0 0 0 76.60706723015277,94.17234845313118 L 76.34134613010907,95.13639839840974 A 100.47608974726606 100.47608974726606 0 0 1 5.987513214418485,24.277555179777966 Z M 123.44644800975817,96.65444007393754 L 123.24335009029049,95.67528164186032 A 99.47608974726606 99.47608974726606 0 0 0 197.26939625982016,30.151990135797213 L 194.42762493748387,29.190566321058334 L 199.98634704793358,23.681427686135684 L 201.05842468960185,31.43388855544905 L 198.21665336726556,30.472464740710173 A 100.47608974726606 100.47608974726606 0 0 1 123.44644800975817,96.65444007393754"/><text text-anchor="middle" pointer-events="none" font-size="8px" fill="#000000" x="99.81973620008192" y="101.19664415388439" font-family="sans-serif">ECONOMY</text></g><g class="relationship" transform="translate(-261.1557298641635 -118.8084259190363) rotate(347.2122461264189)"><path class="outline" fill="#A5ABB6" stroke="none" d="M 17.324116139070416,-18.03122292025696 L 18.031222920256962,-17.324116139070412 A 104.76955780977201 104.76955780977201 0 0 1 74.9960749933614,-46.60245055254907 L 74.83268389890644,-47.589011929379126 A 105.76955780977201 105.76955780977201 0 0 0 17.324116139070416,-18.03122292025696 Z M 103.97747314346712,-48.34303465671749 L 103.8653143552519,-47.349344359780815 A 104.76955780977201 104.76955780977201 0 0 1 162.26790185371985,-21.055751771053686 L 160.25910992186022,-18.827578758360175 L 167.8017708719813,-16.73993276549681 L 164.94629109619933,-24.0266491213117 L 162.9374991643397,-21.79847610861819 A 105.76955780977201 105.76955780977201 0 0 0 103.97747314346712,-48.34303465671749"/><text text-anchor="middle" pointer-events="none" font-size="8px" fill="#000000" x="89.39190539510709" y="-45.47519625211831" font-family="sans-serif">FIRST</text></g><g class="relationship" transform="translate(-261.1557298641635 -118.8084259190363) rotate(347.2122461264189)"><path class="outline" fill="#A5ABB6" stroke="none" d="M 24.018736134675446,-6.953439040707552 L 24.277555179777966,-5.987513214418485 A 262.10178042660726 262.10178042660726 0 0 1 66.51242728395096,-13.665015258354117 L 66.41474744223511,-14.660233148327109 A 263.10178042660726 263.10178042660726 0 0 0 24.018736134675446,-6.953439040707552 Z M 112.89751458821522,-15.096280291596088 L 112.81852224219212,-14.09940506907833 A 262.10178042660726 262.10178042660726 0 0 1 155.18999173494922,-7.215581108891789 L 154.46803360185882,-4.303747244457788 L 162.10459710747693,-6.0163177757532305 L 156.15260257906974,-11.098026261470459 L 155.43064444597934,-8.186192397036455 A 263.10178042660726 263.10178042660726 0 0 0 112.89751458821522,-15.096280291596088"/><text text-anchor="middle" pointer-events="none" font-size="8px" fill="#000000" x="89.65117226516392" y="-12.406861087607922" font-family="sans-serif">BUSINESS</text></g><g class="relationship" transform="translate(-79.4084414227646 -160.059547826575) rotate(377.7340984668279)"><path class="outline" fill="#A5ABB6" stroke="none" d="M 10.396609043987748,22.74116356711926 L 11.29757791189017,22.307279828001697 A 101.82636557414276 101.82636557414276 0 0 0 77.16950617606378,76.61164289176597 L 76.91544175076577,77.5788301889313 A 102.82636557414276 102.82636557414276 0 0 1 10.396609043987748,22.74116356711926 Z M 123.17890927670726,78.9614115474306 L 122.98305536376951,77.9807784637612 A 101.82636557414276 101.82636557414276 0 0 0 191.98029682148368,27.70697363234594 L 189.3599440348309,26.246237080642977 L 195.82540757323272,21.836273222106637 L 195.47410053702072,29.65462236794989 L 192.85374775036794,28.19388581624693 A 102.82636557414276 102.82636557414276 0 0 1 123.17890927670726,78.9614115474306"/><text text-anchor="middle" pointer-events="none" font-size="8px" fill="#000000" x="99.9833096889232" y="83.40717739227276" font-family="sans-serif">BUSINESS</text></g><g class="relationship" transform="translate(-79.4084414227646 -160.059547826575) rotate(377.7340984668279)"><path class="outline" fill="#A5ABB6" stroke="none" d="M 14.44320574945421,20.411854586953456 L 15.247803529220876,19.818034401379958 A 109.1131021043599 109.1131021043599 0 0 0 77.26727659447488,61.0501181674231 L 77.03107501891415,62.02182224568079 A 110.1131021043599 110.1131021043599 0 0 1 14.44320574945421,20.411854586953456 Z M 123.33519252453546,63.251080986560204 L 123.1508799503655,62.26821330726515 A 109.1131021043599 109.1131021043599 0 0 0 187.27067166110743,24.384812167019614 L 184.95479831104802,22.477790765334607 L 192.10636715671566,19.298944583828515 L 190.35850279451995,26.92750736926629 L 188.04262944446054,25.020485967581283 A 110.1131021043599 110.1131021043599 0 0 1 123.33519252453546,63.251080986560204"/><text text-anchor="middle" pointer-events="none" font-size="8px" fill="#000000" x="100.13103385079278" y="67.5989683594583" font-family="sans-serif">BUSINESS</text></g><g class="relationship" transform="translate(-79.4084414227646 -160.059547826575) rotate(377.7340984668279)"><path class="outline" fill="#A5ABB6" stroke="none" d="M 17.9862104268602,17.370844380187897 L 18.666383164631117,16.637792508358068 A 124.04728295597712 124.04728295597712 0 0 0 77.32190507444973,47.056707740051834 L 77.11458043550121,48.03497993841222 A 125.04728295597712 125.04728295597712 0 0 1 17.9862104268602,17.370844380187897 Z M 123.47661311678849,49.07068478884818 L 123.3131817378105,48.08413008465517 A 124.04728295597712 124.04728295597712 0 0 0 183.26859745130807,20.314924460297316 L 181.32832196166422,18.02683988487461 L 188.93084070890168,16.16896241369877 L 185.85563143749985,23.365703894194255 L 183.915355947856,21.07761931877155 A 125.04728295597712 125.04728295597712 0 0 1 123.47661311678849,49.07068478884818"/><text text-anchor="middle" pointer-events="none" font-size="8px" fill="#000000" x="100.25833260823985" y="53.22091624826723" font-family="sans-serif">BUSINESS</text></g><g class="relationship" transform="translate(-79.4084414227646 -160.059547826575) rotate(377.7340984668279)"><path class="outline" fill="#A5ABB6" stroke="none" d="M 20.90208894244944,13.724164012497553 L 21.434121018964774,12.87743981326927 A 153.38519200077755 153.38519200077755 0 0 0 77.33872029459131,34.21909626370632 L 77.17116016316011,35.20495812134905 A 154.38519200077755 154.38519200077755 0 0 1 20.90208894244944,13.724164012497553 Z M 123.59531168101168,36.01315602513313 L 123.46216841650049,35.02205922304199 A 153.38519200077755 153.38519200077755 0 0 0 180.07574010992388,15.63923124747396 L 178.5690279714335,13.04504186893472 L 186.37996734959717,12.555934487419666 L 182.08468962791102,19.098150418859614 L 180.57797748942065,16.503961040320373 A 154.38519200077755 154.38519200077755 0 0 1 123.59531168101168,36.01315602513313"/><text text-anchor="middle" pointer-events="none" font-size="8px" fill="#000000" x="100.361382287739" y="39.864364006586555" font-family="sans-serif">BUSINESS</text></g><g class="relationship" transform="translate(-79.4084414227646 -160.059547826575) rotate(527.2122461264189)"><path class="outline" fill="#A5ABB6" stroke="none" d="M 24.018736134675446,-6.953439040707552 L 24.277555179777966,-5.987513214418485 A 262.10178042660726 262.10178042660726 0 0 1 66.51242728395096,-13.665015258354117 L 66.41474744223511,-14.660233148327109 A 263.10178042660726 263.10178042660726 0 0 0 24.018736134675446,-6.953439040707552 Z M 112.89751458821522,-15.096280291596088 L 112.81852224219212,-14.09940506907833 A 262.10178042660726 262.10178042660726 0 0 1 155.18999173494922,-7.215581108891789 L 154.46803360185882,-4.303747244457788 L 162.10459710747693,-6.0163177757532305 L 156.15260257906974,-11.098026261470459 L 155.43064444597934,-8.186192397036455 A 263.10178042660726 263.10178042660726 0 0 0 112.89751458821522,-15.096280291596088"/><text text-anchor="middle" pointer-events="none" font-size="8px" fill="#000000" x="89.65117226516392" y="-12.406861087607922" transform="rotate(180 89.65117226516392 -15.406861087607922)" font-family="sans-serif">BUSINESS</text></g><g class="relationship" transform="translate(-79.4084414227646 -160.059547826575) rotate(377.7340984668279)"><path class="outline" fill="#A5ABB6" stroke="none" d="M 23.08917320392191,9.598962483481976 L 23.454514228288303,8.668088734837774 A 217.83879632892973 217.83879632892973 0 0 0 77.3278236935342,22.203706954519504 L 77.20979081800598,23.196716642435263 A 218.83879632892973 218.83879632892973 0 0 1 23.08917320392191,9.598962483481976 Z M 123.68212041577922,23.750748349220572 L 123.58779455795047,22.755206972609386 A 217.83879632892973 217.83879632892973 0 0 0 177.7684831357133,10.507781995635597 L 176.7393479976771,7.689825135132015 L 184.5152383332277,8.576126150301713 L 179.1406633197616,14.265057809640371 L 178.1115281817254,11.44710094913679 A 218.83879632892973 218.83879632892973 0 0 1 123.68212041577922,23.750748349220572"/><text text-anchor="middle" pointer-events="none" font-size="8px" fill="#000000" x="100.43716664634803" y="27.210953725173454" font-family="sans-serif">BUSINESS</text></g><g class="relationship" transform="translate(-79.4084414227646 -160.059547826575) rotate(527.2122461264189)"><path class="outline" fill="#A5ABB6" stroke="none" d="M 17.324116139070416,-18.03122292025696 L 18.031222920256962,-17.324116139070412 A 104.76955780977201 104.76955780977201 0 0 1 74.9960749933614,-46.60245055254907 L 74.83268389890644,-47.589011929379126 A 105.76955780977201 105.76955780977201 0 0 0 17.324116139070416,-18.03122292025696 Z M 103.97747314346712,-48.34303465671749 L 103.8653143552519,-47.349344359780815 A 104.76955780977201 104.76955780977201 0 0 1 162.26790185371985,-21.055751771053686 L 160.25910992186022,-18.827578758360175 L 167.8017708719813,-16.73993276549681 L 164.94629109619933,-24.0266491213117 L 162.9374991643397,-21.79847610861819 A 105.76955780977201 105.76955780977201 0 0 0 103.97747314346712,-48.34303465671749"/><text text-anchor="middle" pointer-events="none" font-size="8px" fill="#000000" x="89.39190539510709" y="-45.47519625211831" transform="rotate(180 89.39190539510709 -48.47519625211831)" font-family="sans-serif">FIRST</text></g><g class="relationship" transform="translate(-79.4084414227646 -160.059547826575) rotate(377.7340984668279)"><path class="outline" fill="#A5ABB6" stroke="none" d="M 24.471206027250748,5.139073415689509 L 24.657117634413662,4.15650694245622 A 421.61351185965117 421.61351185965117 0 0 0 85.95375732775369,11.160359421830947 L 85.91323157272578,12.159537915984743 A 422.61351185965117 422.61351185965117 0 0 1 24.471206027250748,5.139073415689509 Z M 115.05077815968446,12.33600725403545 L 115.02235783095196,11.336411193161496 A 421.61351185965117 421.61351185965117 0 0 0 176.39933442390512,5.075522154367502 L 175.87734424236783,2.121283462186608 L 183.3795564025834,4.349918179477331 L 177.0953213326215,9.014507077275361 L 176.5733311510842,6.060268385094466 A 422.61351185965117 422.61351185965117 0 0 1 115.05077815968446,12.33600725403545"/><text text-anchor="middle" pointer-events="none" font-size="8px" fill="#000000" x="100.48351168394636" y="14.998975980350508" font-family="sans-serif">FIRST</text></g><g class="relationship" transform="translate(-79.4084414227646 -160.059547826575) rotate(377.7340984668279)"><path class="outline" fill="#A5ABB6" stroke="none" d="M 25 0.5 L 85.94441858537877 0.5 L 85.94441858537877 -0.5 L 25 -0.5 Z M 115.05379358537877 0.5 L 175.99821217075754 0.5 L 175.99821217075754 3.5 L 182.99821217075754 0 L 175.99821217075754 -3.5 L 175.99821217075754 -0.5 L 115.05379358537877 -0.5 Z"/><text text-anchor="middle" pointer-events="none" font-size="8px" fill="#000000" x="100.49910608537877" y="3" font-family="sans-serif">FIRST</text></g><g class="relationship" transform="translate(-79.4084414227646 -160.059547826575) rotate(377.7340984668279)"><path class="outline" fill="#A5ABB6" stroke="none" d="M 24.471206027250748,-5.139073415689509 L 24.657117634413662,-4.15650694245622 A 421.61351185965117 421.61351185965117 0 0 1 85.9537573277537,-11.160359421830947 L 85.91323157272578,-12.159537915984743 A 422.61351185965117 422.61351185965117 0 0 0 24.471206027250748,-5.139073415689509 Z M 115.05077815968458,-12.33600725403545 L 115.0223578309521,-11.336411193161496 A 421.61351185965117 421.61351185965117 0 0 1 176.39933442390512,-5.075522154367502 L 175.87734424236783,-2.121283462186608 L 183.3795564025834,-4.349918179477331 L 177.0953213326215,-9.014507077275361 L 176.5733311510842,-6.060268385094466 A 422.61351185965117 422.61351185965117 0 0 0 115.05077815968458,-12.33600725403545"/><text text-anchor="middle" pointer-events="none" font-size="8px" fill="#000000" x="100.48351168394643" y="-8.998975980350508" font-family="sans-serif">FIRST</text></g><g class="relationship selected" transform="translate(-79.4084414227646 -160.059547826575) rotate(377.7340984668279)"><path class="outline" fill="#A5ABB6" stroke="none" d="M 23.08917320392191,-9.598962483481976 L 23.454514228288303,-8.668088734837774 A 217.83879632892973 217.83879632892973 0 0 1 85.93932116883506,-23.05421900635838 L 85.86081980752941,-24.051133012816877 A 218.83879632892973 218.83879632892973 0 0 0 23.08917320392191,-9.598962483481976 Z M 115.01318079826325,-24.39868030507253 L 114.958468298591,-23.40017815566091 A 217.83879632892973 217.83879632892973 0 0 1 177.7684831357133,-10.507781995635597 L 176.7393479976771,-7.689825135132015 L 184.5152383332277,-8.576126150301713 L 179.1406633197616,-14.265057809640371 L 178.1115281817254,-11.44710094913679 A 218.83879632892973 218.83879632892973 0 0 0 115.01318079826325,-24.39868030507253"/><text text-anchor="middle" pointer-events="none" font-size="8px" fill="#000000" x="100.43716664634799" y="-21.210953725173454" font-family="sans-serif">FIRST</text></g><g class="relationship" transform="translate(-79.4084414227646 -160.059547826575) rotate(377.7340984668279)"><path class="outline" fill="#A5ABB6" stroke="none" d="M 20.90208894244944,-13.724164012497553 L 21.434121018964774,-12.87743981326927 A 153.38519200077755 153.38519200077755 0 0 1 85.89843635016933,-35.426844827877545 L 85.78668158002448,-36.42058064354981 A 154.38519200077755 154.38519200077755 0 0 0 20.90208894244944,-13.724164012497553 Z M 114.94269823537127,-36.92815764330359 L 114.86560058853561,-35.931134096514256 A 153.38519200077755 153.38519200077755 0 0 1 180.07574010992388,-15.63923124747396 L 178.5690279714335,-13.04504186893472 L 186.37996734959717,-12.555934487419666 L 182.08468962791102,-19.098150418859614 L 180.57797748942065,-16.503961040320373 A 154.38519200077755 154.38519200077755 0 0 0 114.94269823537127,-36.92815764330359"/><text text-anchor="middle" pointer-events="none" font-size="8px" fill="#000000" x="100.36138228773896" y="-33.864364006586555" font-family="sans-serif">FIRST</text></g><g class="relationship" transform="translate(-79.4084414227646 -160.059547826575) rotate(527.2122461264189)"><path class="outline" fill="#A5ABB6" stroke="none" d="M 5.987513214418485,-24.277555179777966 L 6.953439040707552,-24.018736134675446 A 88.16520518550534 88.16520518550534 0 0 1 65.81981627808256,-85.35270139371217 L 65.52157309500309,-86.30719131180801 A 89.16520518550534 89.16520518550534 0 0 0 5.987513214418485,-24.277555179777966 Z M 112.53079875514132,-87.99626162816863 L 112.30182702784923,-87.02282855491661 A 88.16520518550534 88.16520518550534 0 0 1 175.41825736046198,-30.07178040373457 L 172.58367756872707,-29.089356155108693 L 178.18301057254484,-23.621498264457447 L 179.19769708277516,-31.381679401902407 L 176.36311729104025,-30.399255153276528 A 89.16520518550534 89.16520518550534 0 0 0 112.53079875514132,-87.99626162816863"/><text text-anchor="middle" pointer-events="none" font-size="8px" fill="#000000" x="88.93074695047281" y="-86.8079286720272" transform="rotate(180 88.93074695047281 -89.8079286720272)" font-family="sans-serif">ECONOMY</text></g><g class="relationship" transform="translate(-79.4084414227646 -160.059547826575) rotate(377.7340984668279)"><path class="outline" fill="#A5ABB6" stroke="none" d="M 17.9862104268602,-17.370844380187897 L 18.666383164631117,-16.637792508358068 A 124.04728295597712 124.04728295597712 0 0 1 76.89388714801309,-46.96520883711554 L 76.68311206729561,-47.94274342235974 A 125.04728295597712 125.04728295597712 0 0 0 17.9862104268602,-17.370844380187897 Z M 123.91177002881913,-48.99780825238119 L 123.7448587108793,-48.01183634003095 A 124.04728295597712 124.04728295597712 0 0 1 183.26859745130807,-20.314924460297316 L 181.32832196166422,-18.02683988487461 L 188.93084070890168,-16.16896241369877 L 185.85563143749985,-23.365703894194255 L 183.915355947856,-21.07761931877155 A 125.04728295597712 125.04728295597712 0 0 0 123.91177002881913,-48.99780825238119"/><text text-anchor="middle" pointer-events="none" font-size="8px" fill="#000000" x="100.25833260823984" y="-47.22091624826723" font-family="sans-serif">ECONOMY</text></g><g class="relationship" transform="translate(-79.4084414227646 -160.059547826575) rotate(377.7340984668279)"><path class="outline" fill="#A5ABB6" stroke="none" d="M 14.44320574945421,-20.411854586953456 L 15.247803529220876,-19.818034401379958 A 109.1131021043599 109.1131021043599 0 0 1 76.84241430662956,-60.94594032475759 L 76.60231895223154,-61.916689633691924 A 110.1131021043599 110.1131021043599 0 0 0 14.44320574945421,-20.411854586953456 Z M 123.7689227536394,-63.1688452328876 L 123.58067122742092,-62.18672438346203 A 109.1131021043599 109.1131021043599 0 0 1 187.27067166110743,-24.384812167019614 L 184.95479831104802,-22.477790765334607 L 192.10636715671566,-19.298944583828515 L 190.35850279451995,-26.92750736926629 L 188.04262944446054,-25.020485967581283 A 110.1131021043599 110.1131021043599 0 0 0 123.7689227536394,-63.1688452328876"/><text text-anchor="middle" pointer-events="none" font-size="8px" fill="#000000" x="100.13103385079273" y="-61.5989683594583" font-family="sans-serif">ECONOMY</text></g><g class="relationship" transform="translate(-79.4084414227646 -160.059547826575) rotate(377.7340984668279)"><path class="outline" fill="#A5ABB6" stroke="none" d="M 10.396609043987748,-22.74116356711926 L 11.29757791189017,-22.307279828001697 A 101.82636557414276 101.82636557414276 0 0 1 76.74678942243011,-76.49963116490466 L 76.48857364839988,-77.4657184353114 A 102.82636557414276 102.82636557414276 0 0 0 10.396609043987748,-22.74116356711926 Z M 123.6117702242516,-78.87399275245241 L 123.41170668136994,-77.89420982812189 A 101.82636557414276 101.82636557414276 0 0 1 191.98029682148368,-27.70697363234594 L 189.3599440348309,-26.246237080642977 L 195.82540757323272,-21.836273222106637 L 195.47410053702072,-29.65462236794989 L 192.85374775036794,-28.19388581624693 A 102.82636557414276 102.82636557414276 0 0 0 123.6117702242516,-78.87399275245241"/><text text-anchor="middle" pointer-events="none" font-size="8px" fill="#000000" x="99.9833096889232" y="-77.40717739227276" font-family="sans-serif">ECONOMY</text></g><g class="relationship" transform="translate(-79.4084414227646 -160.059547826575) rotate(377.7340984668279)"><path class="outline" fill="#A5ABB6" stroke="none" d="M 5.987513214418485,-24.277555179777966 L 6.953439040707552,-24.018736134675446 A 99.47608974726606 99.47608974726606 0 0 1 76.60706723015278,-94.17234845313118 L 76.34134613010909,-95.13639839840974 A 100.47608974726606 100.47608974726606 0 0 0 5.987513214418485,-24.277555179777966 Z M 123.44644800975816,-96.65444007393754 L 123.24335009029048,-95.67528164186032 A 99.47608974726606 99.47608974726606 0 0 1 197.26939625982016,-30.151990135797213 L 194.42762493748387,-29.190566321058334 L 199.98634704793358,-23.681427686135684 L 201.05842468960185,-31.43388855544905 L 198.21665336726556,-30.472464740710173 A 100.47608974726606 100.47608974726606 0 0 0 123.44644800975816,-96.65444007393754"/><text text-anchor="middle" pointer-events="none" font-size="8px" fill="#000000" x="99.8197362000819" y="-95.19664415388439" font-family="sans-serif">ECONOMY</text></g></g><g class="layer nodes"><g class="node" aria-label="graph-node21" transform="translate(-261.1557298641635,-118.8084259190363)"><circle class="outline" cx="0" cy="0" r="25" fill="#DA7194" stroke="#cc3c6c" stroke-width="2px"/><text class="caption" text-anchor="middle" pointer-events="none" x="0" y="5" font-size="10px" fill="#FFFFFF" font-family="sans-serif"> MSN</text></g><g class="node" aria-label="graph-node68" transform="translate(118.70577333158099,-96.70329968560227)"><circle class="outline" cx="0" cy="0" r="25" fill="#DA7194" stroke="#cc3c6c" stroke-width="2px"/><text class="caption" text-anchor="middle" pointer-events="none" x="0" y="5" font-size="10px" fill="#FFFFFF" font-family="sans-serif"> GRR</text></g><g class="node" aria-label="graph-node7" transform="translate(-79.4084414227646,-160.059547826575)"><circle class="outline" cx="0" cy="0" r="25" fill="#DA7194" stroke="#cc3c6c" stroke-width="2px"/><text class="caption" text-anchor="middle" pointer-events="none" x="0" y="5" font-size="10px" fill="#FFFFFF" font-family="sans-serif"> ORD</text></g></g></svg>