<svg xmlns="http://www.w3.org/2000/svg" width="598.794677734375" height="613.54248046875" viewBox="-332.14190673828125 -250.38330078125 598.794677734375 613.54248046875"><title>Neo4j Graph Visualization</title><desc>Created using Neo4j (http://www.neo4j.com/)</desc><g class="layer relationships"><g class="relationship" transform="translate(182.97739569450792 126.99791545361053) rotate(494.1107519085374)"><path class="outline" fill="#A5ABB6" stroke="none" d="M 25 0.5 L 46.47534390093135 0.5 L 46.47534390093135 -0.5 L 25 -0.5 Z M 92.03784390093135 0.5 L 113.5131878018627 0.5 L 113.5131878018627 3.5 L 120.5131878018627 0 L 113.5131878018627 -3.5 L 113.5131878018627 -0.5 L 92.03784390093135 -0.5 Z"/><text text-anchor="middle" pointer-events="none" font-size="8px" fill="#000000" x="69.25659390093135" y="3" transform="rotate(180 69.25659390093135 0)" font-family="sans-serif">ACTED_IN</text></g><g class="relationship" transform="translate(-17.74630490964453 86.62987762059288) rotate(415.52962006992254)"><path class="outline" fill="#A5ABB6" stroke="none" d="M 25 0.5 L 61.56600900818596 0.5 L 61.56600900818596 -0.5 L 25 -0.5 Z M 107.12850900818596 0.5 L 143.69451801637192 0.5 L 143.69451801637192 3.5 L 150.69451801637192 0 L 143.69451801637192 -3.5 L 143.69451801637192 -0.5 L 107.12850900818596 -0.5 Z"/><text text-anchor="middle" pointer-events="none" font-size="8px" fill="#000000" x="84.34725900818596" y="3" font-family="sans-serif">ACTED_IN</text></g><g class="relationship" transform="translate(-17.74630490964453 86.62987762059288) rotate(303.85534353007097)"><path class="outline" fill="#A5ABB6" stroke="none" d="M 25 0.5 L 69.55876535183819 0.5 L 69.55876535183819 -0.5 L 25 -0.5 Z M 115.12126535183819 0.5 L 159.68003070367638 0.5 L 159.68003070367638 3.5 L 166.68003070367638 0 L 159.68003070367638 -3.5 L 159.68003070367638 -0.5 L 115.12126535183819 -0.5 Z"/><text text-anchor="middle" pointer-events="none" font-size="8px" fill="#000000" x="92.34001535183819" y="3" font-family="sans-serif">ACTED_IN</text></g><g class="relationship" transform="translate(-17.74630490964453 86.62987762059288) rotate(192.8795943170299)"><path class="outline" fill="#A5ABB6" stroke="none" d="M 25 0.5 L 47.41125157760753 0.5 L 47.41125157760753 -0.5 L 25 -0.5 Z M 92.97375157760753 0.5 L 115.38500315521506 0.5 L 115.38500315521506 3.5 L 122.38500315521506 0 L 115.38500315521506 -3.5 L 115.38500315521506 -0.5 L 92.97375157760753 -0.5 Z"/><text text-anchor="middle" pointer-events="none" font-size="8px" fill="#000000" x="70.19250157760753" y="3" transform="rotate(180 70.19250157760753 0)" font-family="sans-serif">ACTED_IN</text></g><g class="relationship" transform="translate(-17.74630490964453 86.62987762059288) rotate(227.76302685148795)"><path class="outline" fill="#A5ABB6" stroke="none" d="M 25 0.5 L 60.0876742368752 0.5 L 60.0876742368752 -0.5 L 25 -0.5 Z M 105.6501742368752 0.5 L 140.7378484737504 0.5 L 140.7378484737504 3.5 L 147.7378484737504 0 L 140.7378484737504 -3.5 L 140.7378484737504 -0.5 L 105.6501742368752 -0.5 Z"/><text text-anchor="middle" pointer-events="none" font-size="8px" fill="#000000" x="82.8689242368752" y="3" transform="rotate(180 82.8689242368752 0)" font-family="sans-serif">ACTED_IN</text></g><g class="relationship" transform="translate(-17.74630490964453 86.62987762059288) rotate(522.0517513894918)"><path class="outline" fill="#A5ABB6" stroke="none" d="M 25 0.5 L 69.00419191598942 0.5 L 69.00419191598942 -0.5 L 25 -0.5 Z M 114.56669191598942 0.5 L 158.57088383197885 0.5 L 158.57088383197885 3.5 L 165.57088383197885 0 L 158.57088383197885 -3.5 L 158.57088383197885 -0.5 L 114.56669191598942 -0.5 Z"/><text text-anchor="middle" pointer-events="none" font-size="8px" fill="#000000" x="91.78544191598942" y="3" transform="rotate(180 91.78544191598942 0)" font-family="sans-serif">ACTED_IN</text></g><g class="relationship" transform="translate(185.79634194549035 334.1592709495013) rotate(224.60668719668797)"><path class="outline" fill="#A5ABB6" stroke="none" d="M 25 0.5 L 46.83056090456701 0.5 L 46.83056090456701 -0.5 L 25 -0.5 Z M 92.39306090456701 0.5 L 114.22362180913402 0.5 L 114.22362180913402 3.5 L 121.22362180913402 0 L 114.22362180913402 -3.5 L 114.22362180913402 -0.5 L 92.39306090456701 -0.5 Z"/><text text-anchor="middle" pointer-events="none" font-size="8px" fill="#000000" x="69.61181090456701" y="3" transform="rotate(180 69.61181090456701 0)" font-family="sans-serif">ACTED_IN</text></g><g class="relationship" transform="translate(229.88899401598243 222.6406068923181) rotate(536.5881710338178)"><path class="outline" fill="#A5ABB6" stroke="none" d="M 25 0.5 L 47.94816473393725 0.5 L 47.94816473393725 -0.5 L 25 -0.5 Z M 93.51066473393725 0.5 L 116.4588294678745 0.5 L 116.4588294678745 3.5 L 123.4588294678745 0 L 116.4588294678745 -3.5 L 116.4588294678745 -0.5 L 93.51066473393725 -0.5 Z"/><text text-anchor="middle" pointer-events="none" font-size="8px" fill="#000000" x="70.72941473393725" y="3" transform="rotate(180 70.72941473393725 0)" font-family="sans-serif">ACTED_IN</text></g><g class="relationship" transform="translate(237.6527890133314 -77.21171417494925) rotate(538.2034142504813)"><path class="outline" fill="#A5ABB6" stroke="none" d="M 25 0.5 L 48.06255875250204 0.5 L 48.06255875250204 -0.5 L 25 -0.5 Z M 93.62505875250204 0.5 L 116.68761750500408 0.5 L 116.68761750500408 3.5 L 123.68761750500408 0 L 116.68761750500408 -3.5 L 116.68761750500408 -0.5 L 93.62505875250204 -0.5 Z"/><text text-anchor="middle" pointer-events="none" font-size="8px" fill="#000000" x="70.84380875250204" y="3" transform="rotate(180 70.84380875250204 0)" font-family="sans-serif">ACTED_IN</text></g><g class="relationship" transform="translate(197.21978299966324 -175.38754657415802) rotate(496.4507327746691)"><path class="outline" fill="#A5ABB6" stroke="none" d="M 25 0.5 L 48.34911523321071 0.5 L 48.34911523321071 -0.5 L 25 -0.5 Z M 93.91161523321071 0.5 L 117.26073046642142 0.5 L 117.26073046642142 3.5 L 124.26073046642142 0 L 117.26073046642142 -3.5 L 117.26073046642142 -0.5 L 93.91161523321071 -0.5 Z"/><text text-anchor="middle" pointer-events="none" font-size="8px" fill="#000000" x="71.13036523321071" y="3" transform="rotate(180 71.13036523321071 0)" font-family="sans-serif">ACTED_IN</text></g><g class="relationship" transform="translate(104.80463604347673 -221.3832994821596) rotate(456.04697526870854)"><path class="outline" fill="#A5ABB6" stroke="none" d="M 25 0.5 L 48.55169104229532 0.5 L 48.55169104229532 -0.5 L 25 -0.5 Z M 94.11419104229532 0.5 L 117.66588208459063 0.5 L 117.66588208459063 3.5 L 124.66588208459063 0 L 117.66588208459063 -3.5 L 117.66588208459063 -0.5 L 94.11419104229532 -0.5 Z"/><text text-anchor="middle" pointer-events="none" font-size="8px" fill="#000000" x="71.33294104229532" y="3" transform="rotate(180 71.33294104229532 0)" font-family="sans-serif">ACTED_IN</text></g><g class="relationship" transform="translate(7.844674584594915 -198.0523895148436) rotate(417.0991741030829)"><path class="outline" fill="#A5ABB6" stroke="none" d="M 25 0.5 L 48.45696548051042 0.5 L 48.45696548051042 -0.5 L 25 -0.5 Z M 94.01946548051042 0.5 L 117.47643096102084 0.5 L 117.47643096102084 3.5 L 124.47643096102084 0 L 117.47643096102084 -3.5 L 117.47643096102084 -0.5 L 94.01946548051042 -0.5 Z"/><text text-anchor="middle" pointer-events="none" font-size="8px" fill="#000000" x="71.23821548051042" y="3" font-family="sans-serif">ACTED_IN</text></g><g class="relationship" transform="translate(-233.11552752798153 -74.01514998053423) rotate(420.707318365681)"><path class="outline" fill="#A5ABB6" stroke="none" d="M 25 0.5 L 46.983181066803894 0.5 L 46.983181066803894 -0.5 L 25 -0.5 Z M 92.5456810668039 0.5 L 114.52886213360779 0.5 L 114.52886213360779 3.5 L 121.52886213360779 0 L 114.52886213360779 -3.5 L 114.52886213360779 -0.5 L 92.5456810668039 -0.5 Z"/><text text-anchor="middle" pointer-events="none" font-size="8px" fill="#000000" x="69.7644310668039" y="3" font-family="sans-serif">ACTED_IN</text></g><g class="relationship" transform="translate(-233.11552752798153 -74.01514998053423) rotate(378.2632825974946)"><path class="outline" fill="#A5ABB6" stroke="none" d="M 25 0.5 L 25.97882332285394 0.5 L 25.97882332285394 -0.5 L 25 -0.5 Z M 71.54132332285394 0.5 L 72.52014664570788 0.5 L 72.52014664570788 3.5 L 79.52014664570788 0 L 72.52014664570788 -3.5 L 72.52014664570788 -0.5 L 71.54132332285394 -0.5 Z"/><text text-anchor="middle" pointer-events="none" font-size="8px" fill="#000000" x="48.76007332285394" y="3" font-family="sans-serif">ACTED_IN</text></g><g class="relationship" transform="translate(-233.11552752798153 -74.01514998053423) rotate(441.171432189573)"><path class="outline" fill="#A5ABB6" stroke="none" d="M 25 0.5 L 84.71935758322505 0.5 L 84.71935758322505 -0.5 L 25 -0.5 Z M 130.28185758322505 0.5 L 190.0012151664501 0.5 L 190.0012151664501 3.5 L 197.0012151664501 0 L 190.0012151664501 -3.5 L 190.0012151664501 -0.5 L 130.28185758322505 -0.5 Z"/><text text-anchor="middle" pointer-events="none" font-size="8px" fill="#000000" x="107.50060758322505" y="3" font-family="sans-serif">ACTED_IN</text></g><g class="relationship" transform="translate(-303.1418921683746 -4.314894659487489) rotate(382.28932192505755)"><path class="outline" fill="#A5ABB6" stroke="none" d="M 25 0.5 L 50.30023437390814 0.5 L 50.30023437390814 -0.5 L 25 -0.5 Z M 95.86273437390814 0.5 L 121.16296874781628 0.5 L 121.16296874781628 3.5 L 128.16296874781628 0 L 121.16296874781628 -3.5 L 121.16296874781628 -0.5 L 95.86273437390814 -0.5 Z"/><text text-anchor="middle" pointer-events="none" font-size="8px" fill="#000000" x="73.08148437390814" y="3" font-family="sans-serif">ACTED_IN</text></g><g class="relationship" transform="translate(-303.1418921683746 -4.314894659487489) rotate(347.6883722606517)"><path class="outline" fill="#A5ABB6" stroke="none" d="M 25 0.5 L 60.35184294094391 0.5 L 60.35184294094391 -0.5 L 25 -0.5 Z M 105.91434294094391 0.5 L 141.26618588188782 0.5 L 141.26618588188782 3.5 L 148.26618588188782 0 L 141.26618588188782 -3.5 L 141.26618588188782 -0.5 L 105.91434294094391 -0.5 Z"/><text text-anchor="middle" pointer-events="none" font-size="8px" fill="#000000" x="83.13309294094391" y="3" font-family="sans-serif">ACTED_IN</text></g><g class="relationship" transform="translate(-303.1418921683746 -4.314894659487489) rotate(415.18065718868286)"><path class="outline" fill="#A5ABB6" stroke="none" d="M 25 0.5 L 64.87503317807268 0.5 L 64.87503317807268 -0.5 L 25 -0.5 Z M 110.43753317807268 0.5 L 150.31256635614537 0.5 L 150.31256635614537 3.5 L 157.31256635614537 0 L 150.31256635614537 -3.5 L 150.31256635614537 -0.5 L 110.43753317807268 -0.5 Z"/><text text-anchor="middle" pointer-events="none" font-size="8px" fill="#000000" x="87.65628317807268" y="3" font-family="sans-serif">ACTED_IN</text></g><g class="relationship" transform="translate(-300.5277746021886 94.72034913876328) rotate(343.5991210642071)"><path class="outline" fill="#A5ABB6" stroke="none" d="M 25 0.5 L 46.221189419047576 0.5 L 46.221189419047576 -0.5 L 25 -0.5 Z M 91.78368941904758 0.5 L 113.00487883809515 0.5 L 113.00487883809515 3.5 L 120.00487883809515 0 L 113.00487883809515 -3.5 L 113.00487883809515 -0.5 L 91.78368941904758 -0.5 Z"/><text text-anchor="middle" pointer-events="none" font-size="8px" fill="#000000" x="69.00243941904758" y="3" font-family="sans-serif">ACTED_IN</text></g><g class="relationship" transform="translate(-300.5277746021886 94.72034913876328) rotate(320.78968130913694)"><path class="outline" fill="#A5ABB6" stroke="none" d="M 25 0.5 L 81.26957294899553 0.5 L 81.26957294899553 -0.5 L 25 -0.5 Z M 126.83207294899553 0.5 L 183.10164589799106 0.5 L 183.10164589799106 3.5 L 190.10164589799106 0 L 183.10164589799106 -3.5 L 183.10164589799106 -0.5 L 126.83207294899553 -0.5 Z"/><text text-anchor="middle" pointer-events="none" font-size="8px" fill="#000000" x="104.05082294899553" y="3" font-family="sans-serif">ACTED_IN</text></g><g class="relationship" transform="translate(-300.5277746021886 94.72034913876328) rotate(386.5167506897795)"><path class="outline" fill="#A5ABB6" stroke="none" d="M 25 0.5 L 30.426523919712572 0.5 L 30.426523919712572 -0.5 L 25 -0.5 Z M 75.98902391971257 0.5 L 81.41554783942514 0.5 L 81.41554783942514 3.5 L 88.41554783942514 0 L 81.41554783942514 -3.5 L 81.41554783942514 -0.5 L 75.98902391971257 -0.5 Z"/><text text-anchor="middle" pointer-events="none" font-size="8px" fill="#000000" x="53.20777391971257" y="3" font-family="sans-serif">ACTED_IN</text></g><g class="relationship" transform="translate(-209.70783683661034 291.47884057562555) rotate(274.17430883197324)"><path class="outline" fill="#A5ABB6" stroke="none" d="M 25 0.5 L 46.974607086274005 0.5 L 46.974607086274005 -0.5 L 25 -0.5 Z M 92.537107086274 0.5 L 114.51171417254801 0.5 L 114.51171417254801 3.5 L 121.51171417254801 0 L 114.51171417254801 -3.5 L 114.51171417254801 -0.5 L 92.537107086274 -0.5 Z"/><text text-anchor="middle" pointer-events="none" font-size="8px" fill="#000000" x="69.755857086274" y="3" font-family="sans-serif">ACTED_IN</text></g></g><g class="layer nodes"><g class="node" aria-label="graph-node71" transform="translate(182.97739569450792,126.99791545361053)"><circle class="outline" cx="0" cy="0" r="25" fill="#C990C0" stroke="#b261a5" stroke-width="2px"/><text class="caption" text-anchor="middle" pointer-events="none" x="0" y="0" font-size="10px" fill="#FFFFFF" font-family="sans-serif"> Tom</text><text class="caption" text-anchor="middle" pointer-events="none" x="0" y="10" font-size="10px" fill="#FFFFFF" font-family="sans-serif"> Hanks</text></g><g class="node" aria-label="graph-node4" transform="translate(-17.74630490964453,86.62987762059288)"><circle class="outline" cx="0" cy="0" r="25" fill="#C990C0" stroke="#b261a5" stroke-width="2px"/><text class="caption" text-anchor="middle" pointer-events="none" x="0" y="0" font-size="10px" fill="#FFFFFF" font-family="sans-serif"> Hugo</text><text class="caption" text-anchor="middle" pointer-events="none" x="0" y="10" font-size="10px" fill="#FFFFFF" font-family="sans-serif"> Weavi…</text></g><g class="node" aria-label="graph-node105" transform="translate(81.69329853167774,231.47575753589388)"><circle class="outline" cx="0" cy="0" r="25" fill="#F79767" stroke="#f36924" stroke-width="2px"/><text class="caption" text-anchor="middle" pointer-events="none" x="0" y="0" font-size="10px" fill="#FFFFFF" font-family="sans-serif"> Cloud</text><text class="caption" text-anchor="middle" pointer-events="none" x="0" y="10" font-size="10px" fill="#FFFFFF" font-family="sans-serif"> Atlas</text></g><g class="node" aria-label="graph-node107" transform="translate(185.79634194549035,334.1592709495013)"><circle class="outline" cx="0" cy="0" r="25" fill="#C990C0" stroke="#b261a5" stroke-width="2px"/><text class="caption" text-anchor="middle" pointer-events="none" x="0" y="0" font-size="10px" fill="#FFFFFF" font-family="sans-serif"> Jim</text><text class="caption" text-anchor="middle" pointer-events="none" x="0" y="10" font-size="10px" fill="#FFFFFF" font-family="sans-serif"> Broad…</text></g><g class="node" aria-label="graph-node106" transform="translate(229.88899401598243,222.6406068923181)"><circle class="outline" cx="0" cy="0" r="25" fill="#C990C0" stroke="#b261a5" stroke-width="2px"/><text class="caption" text-anchor="middle" pointer-events="none" x="0" y="0" font-size="10px" fill="#FFFFFF" font-family="sans-serif"> Halle</text><text class="caption" text-anchor="middle" pointer-events="none" x="0" y="10" font-size="10px" fill="#FFFFFF" font-family="sans-serif"> Berry</text></g><g class="node" aria-label="graph-node119" transform="translate(237.6527890133314,-77.21171417494925)"><circle class="outline" cx="0" cy="0" r="25" fill="#C990C0" stroke="#b261a5" stroke-width="2px"/><text class="caption" text-anchor="middle" pointer-events="none" x="0" y="5" font-size="10px" fill="#FFFFFF" font-family="sans-serif"> John Hurt</text></g><g class="node" aria-label="graph-node116" transform="translate(89.03826182760444,-72.55017916197123)"><circle class="outline" cx="0" cy="0" r="25" fill="#F79767" stroke="#f36924" stroke-width="2px"/><text class="caption" text-anchor="middle" pointer-events="none" x="0" y="0" font-size="10px" fill="#FFFFFF" font-family="sans-serif"> V for</text><text class="caption" text-anchor="middle" pointer-events="none" x="0" y="10" font-size="10px" fill="#FFFFFF" font-family="sans-serif"> Vende…</text></g><g class="node" aria-label="graph-node118" transform="translate(197.21978299966324,-175.38754657415802)"><circle class="outline" cx="0" cy="0" r="25" fill="#C990C0" stroke="#b261a5" stroke-width="2px"/><text class="caption" text-anchor="middle" pointer-events="none" x="0" y="0" font-size="10px" fill="#FFFFFF" font-family="sans-serif"> Stephen</text><text class="caption" text-anchor="middle" pointer-events="none" x="0" y="10" font-size="10px" fill="#FFFFFF" font-family="sans-serif"> Rea</text></g><g class="node" aria-label="graph-node117" transform="translate(104.80463604347673,-221.3832994821596)"><circle class="outline" cx="0" cy="0" r="25" fill="#C990C0" stroke="#b261a5" stroke-width="2px"/><text class="caption" text-anchor="middle" pointer-events="none" x="0" y="0" font-size="10px" fill="#FFFFFF" font-family="sans-serif"> Natalie</text><text class="caption" text-anchor="middle" pointer-events="none" x="0" y="10" font-size="10px" fill="#FFFFFF" font-family="sans-serif"> Portm…</text></g><g class="node" aria-label="graph-node120" transform="translate(7.844674584594915,-198.0523895148436)"><circle class="outline" cx="0" cy="0" r="25" fill="#C990C0" stroke="#b261a5" stroke-width="2px"/><text class="caption" text-anchor="middle" pointer-events="none" x="0" y="5" font-size="10px" fill="#FFFFFF" font-family="sans-serif"> Ben Miles</text></g><g class="node" aria-label="graph-node3" transform="translate(-233.11552752798153,-74.01514998053423)"><circle class="outline" cx="0" cy="0" r="25" fill="#C990C0" stroke="#b261a5" stroke-width="2px"/><text class="caption" text-anchor="middle" pointer-events="none" x="0" y="0" font-size="10px" fill="#FFFFFF" font-family="sans-serif"> Laurence</text><text class="caption" text-anchor="middle" pointer-events="none" x="0" y="10" font-size="10px" fill="#FFFFFF" font-family="sans-serif"> Fishb…</text></g><g class="node" aria-label="graph-node10" transform="translate(-161.42319601916117,53.77732648423752)"><circle class="outline" cx="0" cy="0" r="25" fill="#F79767" stroke="#f36924" stroke-width="2px"/><text class="caption" text-anchor="middle" pointer-events="none" x="0" y="-5" font-size="10px" fill="#FFFFFF" font-family="sans-serif"> The</text><text class="caption" text-anchor="middle" pointer-events="none" x="0" y="5" font-size="10px" fill="#FFFFFF" font-family="sans-serif"> Matrix</text><text class="caption" text-anchor="middle" pointer-events="none" x="0" y="15" font-size="10px" fill="#FFFFFF" font-family="sans-serif"> Rev…</text></g><g class="node" aria-label="graph-node2" transform="translate(-303.1418921683746,-4.314894659487489)"><circle class="outline" cx="0" cy="0" r="25" fill="#C990C0" stroke="#b261a5" stroke-width="2px"/><text class="caption" text-anchor="middle" pointer-events="none" x="0" y="5" font-size="10px" fill="#FFFFFF" font-family="sans-serif"> Carrie-A…</text></g><g class="node" aria-label="graph-node1" transform="translate(-300.5277746021886,94.72034913876328)"><circle class="outline" cx="0" cy="0" r="25" fill="#C990C0" stroke="#b261a5" stroke-width="2px"/><text class="caption" text-anchor="middle" pointer-events="none" x="0" y="0" font-size="10px" fill="#FFFFFF" font-family="sans-serif"> Keanu</text><text class="caption" text-anchor="middle" pointer-events="none" x="0" y="10" font-size="10px" fill="#FFFFFF" font-family="sans-serif"> Reeves</text></g><g class="node" aria-label="graph-node9" transform="translate(-133.8604263362422,-41.2602123030196)"><circle class="outline" cx="0" cy="0" r="25" fill="#F79767" stroke="#f36924" stroke-width="2px"/><text class="caption" text-anchor="middle" pointer-events="none" x="0" y="-5" font-size="10px" fill="#FFFFFF" font-family="sans-serif"> The</text><text class="caption" text-anchor="middle" pointer-events="none" x="0" y="5" font-size="10px" fill="#FFFFFF" font-family="sans-serif"> Matrix</text><text class="caption" text-anchor="middle" pointer-events="none" x="0" y="15" font-size="10px" fill="#FFFFFF" font-family="sans-serif"> Rel…</text></g><g class="node" aria-label="graph-node8" transform="translate(-209.70783683661034,291.47884057562555)"><circle class="outline" cx="0" cy="0" r="25" fill="#C990C0" stroke="#b261a5" stroke-width="2px"/><text class="caption" text-anchor="middle" pointer-events="none" x="0" y="0" font-size="10px" fill="#FFFFFF" font-family="sans-serif"> Emil</text><text class="caption" text-anchor="middle" pointer-events="none" x="0" y="10" font-size="10px" fill="#FFFFFF" font-family="sans-serif"> Eifrem</text></g><g class="node" aria-label="graph-node0" transform="translate(-199.0431028721633,145.35579024048516)"><circle class="outline" cx="0" cy="0" r="25" fill="#F79767" stroke="#f36924" stroke-width="2px"/><text class="caption" text-anchor="middle" pointer-events="none" x="0" y="0" font-size="10px" fill="#FFFFFF" font-family="sans-serif"> The</text><text class="caption" text-anchor="middle" pointer-events="none" x="0" y="10" font-size="10px" fill="#FFFFFF" font-family="sans-serif"> Matrix</text></g></g></svg>